HIERARCHY
ROOT Hips
{
	OFFSET 0.000000 0.000000 0.000000 
	CHANNELS 6 Xposition Yposition Zposition Yrotation Zrotation Xrotation 
	JOINT Lumbar
	{
		OFFSET 0.000000 0.000000 0.000000 
		CHANNELS 3 Zrotation Xrotation Yrotation
		JOINT Neck
		{
			OFFSET 0.000000 0.445665 0.000000 
			CHANNELS 3 Zrotation Xrotation Yrotation
			End Site
			{
				OFFSET 0.000000 0.227535 0.000000 
			}
		}
		JOINT RightShoulder
		{
			OFFSET 0.019635 0.377685 0.194865 
			CHANNELS 3 Zrotation Xrotation Yrotation
			JOINT RightElbow
			{
				OFFSET 0.000000 -0.243375 0.000000 
				CHANNELS 2 Zrotation Yrotation
				JOINT RightWrist
				{
					OFFSET 0.000000 -0.264825 0.000000 
					CHANNELS 2 Zrotation Xrotation
					End Site
					{
						OFFSET 0.006600 -0.176220 0.000990 
					}
				}
			}
		}
		JOINT LeftShoulder
		{
			OFFSET 0.019635 0.377685 -0.194865 
			CHANNELS 3 Zrotation Xrotation Yrotation
			JOINT LeftElbow
			{
				OFFSET 0.000000 -0.243375 0.000000 
				CHANNELS 2 Zrotation Yrotation
				JOINT LeftWrist
				{
					OFFSET 0.000000 -0.264825 0.000000 
					CHANNELS 2 Zrotation Xrotation
					End Site
					{
						OFFSET 0.006600 -0.176220 -0.000990 
					}
				}
			}
		}
	}
	JOINT RightHip
	{
		OFFSET 0.052140 -0.069960 0.075570 
		CHANNELS 3 Zrotation Xrotation Yrotation
		JOINT RightKnee
		{
			OFFSET 0.000000 -0.402270 0.000000 
			CHANNELS 1 Zrotation
			JOINT RightAnkle
			{
				OFFSET 0.000000 -0.404085 0.000000 
				CHANNELS 3 Zrotation Xrotation Yrotation
				End Site
				{
					OFFSET 0.204105 -0.089430 0.008415 
				}
			}
		}
	}
	JOINT LeftHip
	{
		OFFSET 0.052140 -0.069960 -0.075570 
		CHANNELS 3 Zrotation Xrotation Yrotation
		JOINT LeftKnee
		{
			OFFSET 0.000000 -0.402270 0.000000 
			CHANNELS 1 Zrotation
			JOINT LeftAnkle
			{
				OFFSET 0.000000 -0.404085 0.000000 
				CHANNELS 3 Zrotation Xrotation Yrotation
				End Site
				{
					OFFSET 0.204105 -0.089430 -0.008415 
				}
			}
		}
	}
}
MOTION
Frames: 17
Frame Time: 0.02
-1.40736 0.95971 -0.25591 166.212 0 2.11241 -19.74831 -0.61609 -5.25958 -24.55006 5.53105 3.49149 27.04431 -24.11615 31.1754 107.0177 116.53945 -42.25003 -7.10979 34.89141 6.16757 -17.15902 83.412 -90.15727 31.46125 1.92666 9.67604 0.067 13.97565 -27.46799 10.14713 -3.82362 -3.40591 -1.06289 -2.17347 6.70446 -12.92766 6.93412 6.17751 11.63287
-1.4072 0.95967 -0.25566 166.19043 0 2.11177 -19.7041 -0.60357 -5.27047 -24.41915 5.4895 3.43429 26.74108 -24.17012 31.35721 106.96945 116.75569 -42.19238 -7.14968 34.71337 6.24905 -17.09293 83.42438 -90.11147 31.48102 1.93809 9.68291 0.05592 13.98186 -27.4514 10.15152 -3.79704 -3.39282 -1.05188 -2.18494 6.72194 -12.93357 6.94412 6.18231 11.6391
-1.40703 0.95963 -0.25544 166.15356 0 2.11233 -19.65707 -0.59645 -5.27335 -24.29083 5.4628 3.38133 26.52369 -24.25747 31.80674 106.98533 117.04739 -42.02602 -7.20932 34.54434 6.30748 -17.02889 83.40147 -90.05897 31.49528 1.95127 9.6936 0.04647 13.99319 -27.43717 10.15574 -3.76223 -3.37469 -1.04161 -2.19766 6.74142 -12.94212 6.95356 6.18646 11.65597
-1.40686 0.95959 -0.25521 166.12249 0 2.11238 -19.61157 -0.58772 -5.27978 -24.16356 5.43002 3.32804 26.27004 -24.33047 32.13738 106.97262 117.30873 -41.92061 -7.25982 34.37416 6.37503 -16.9643 83.39454 -90.00878 31.51225 1.96281 9.70336 0.03665 14.00316 -27.42273 10.15965 -3.73222 -3.35859 -1.03113 -2.20972 6.76075 -12.94919 6.96315 6.19107 11.66822
-1.40671 0.95955 -0.25498 166.09617 0 2.11248 -19.56524 -0.57545 -5.28651 -24.02564 5.39414 3.26793 26.00323 -24.39974 32.45546 106.95808 117.55491 -41.7666 -7.31125 34.19017 6.44868 -16.89822 83.38834 -89.96083 31.52799 1.97779 9.70994 0.0251 14.00906 -27.40481 10.16526 -3.69778 -3.34346 -1.02007 -2.22229 6.77723 -12.95742 6.97307 6.19514 11.67938
-1.40652 0.95951 -0.25476 166.0566 0 2.11266 -19.51985 -0.57175 -5.29079 -23.91136 5.36827 3.22283 25.78497 -24.4843 32.86152 106.96164 117.84871 -41.68779 -7.36515 34.03797 6.50422 -16.83564 83.37217 -89.90731 31.54515 1.98618 9.72389 0.0176 14.02448 -27.39457 10.16728 -3.67056 -3.32523 -1.01035 -2.23399 6.79998 -12.9639 6.98225 6.2001 11.6952
-1.40625 0.95947 -0.25462 165.98134 0 2.11297 -19.47809 -0.59126 -5.28959 -23.85721 5.36728 3.22101 25.678 -24.60919 33.47114 107.00894 118.27215 -41.84465 -7.42351 33.96688 6.51276 -16.78272 83.33573 -89.83564 31.56727 1.97466 9.75813 0.02087 14.06696 -27.40588 10.15908 -3.66584 -3.29888 -1.0048 -2.24372 6.83949 -12.96438 6.98898 6.20784 11.72378
-1.40594 0.95943 -0.25449 165.89373 0 2.11327 -19.4373 -0.61907 -5.28628 -23.82766 5.37571 3.23369 25.61745 -24.74723 34.15572 107.07066 118.73803 -42.08039 -7.48325 33.9284 6.50429 -16.73319 83.29065 -89.75945 31.5911 1.95666 9.79949 0.02818 14.11853 -27.42468 10.14732 -3.66857 -3.26974 -1.00048 -2.25239 6.88523 -12.9631 6.99507 6.21644 11.75631
-1.40565 0.95939 -0.25436 165.8137 0 2.11339 -19.39576 -0.64252 -5.2844 -23.78996 5.37936 3.23787 25.53698 -24.87533 34.78918 107.11951 119.17333 -42.27943 -7.54069 33.8781 6.50523 -16.68173 83.25033 -89.68833 31.61444 1.94248 9.83696 0.03367 14.16458 -27.43938 10.13742 -3.66755 -3.24243 -0.99517 -2.26103 6.92809 -12.96299 7.00183 6.22449 11.78543
-1.40536 0.95935 -0.25422 165.72509 0 2.1143 -19.35531 -0.66859 -5.28038 -23.73973 5.38579 3.25013 25.45446 -25.02152 35.50356 107.19678 119.65809 -42.47942 -7.6057 33.81559 6.49822 -16.6318 83.20524 -89.60436 31.63645 1.92474 9.8772 0.03914 14.21649 -27.45695 10.12654 -3.6678 -3.21264 -0.99165 -2.27184 6.97114 -12.96143 7.00705 6.23319 11.82161
-1.40506 0.95931 -0.2541 165.65132 0 2.11357 -19.31303 -0.69116 -5.28025 -23.72116 5.38827 3.24909 25.38619 -25.13246 36.06419 107.21805 120.05 -42.69616 -7.65523 33.78597 6.50412 -16.57968 83.16852 -89.54601 31.66161 1.91279 9.91347 0.04561 14.2585 -27.47047 10.11679 -3.66727 -3.18735 -0.98473 -2.27791 7.01533 -12.9624 7.01525 6.24075 11.84403
-1.40475 0.95926 -0.25403 165.62412 0 2.10797 -19.2639 -0.70155 -5.29314 -23.78631 5.37921 3.20673 25.34524 -25.145 36.17683 107.07597 120.16509 -42.95274 -7.65947 33.84056 6.54911 -16.51897 83.15679 -89.561 31.69584 1.91904 9.93556 0.05368 14.26895 -27.4694 10.1115 -3.66309 -3.17577 -0.96778 -2.27063 7.06024 -12.97127 7.03252 6.24496 11.82614
-1.40442 0.9592 -0.25396 165.61194 0 2.10077 -19.21321 -0.70818 -5.30976 -23.88204 5.36555 3.15068 25.31686 -25.12108 36.13183 106.87785 120.18645 -43.22161 -7.64833 33.92684 6.60784 -16.45625 83.15398 -89.60166 31.73304 1.93124 9.95362 0.06261 14.26942 -27.46423 10.10739 -3.65785 -3.16875 -0.94741 -2.25871 7.10618 -12.98265 7.05269 6.24797 11.79447
-1.4041 0.95915 -0.25389 165.5912 0 2.0945 -19.16425 -0.71687 -5.32353 -23.96222 5.35273 3.10149 25.28254 -25.11226 36.16089 106.70832 120.2574 -43.47697 -7.64563 33.99762 6.661 -16.39554 83.14742 -89.62971 31.76844 1.9403 9.97446 0.07126 14.27577 -27.462 10.10245 -3.65291 -3.15926 -0.92882 -2.24925 7.15231 -12.99255 7.0711 6.25155 11.7699
-1.40379 0.95909 -0.25383 165.57712 0 2.08735 -19.11097 -0.72447 -5.34198 -24.05015 5.34521 3.04994 25.25028 -25.11004 36.18223 106.52554 120.30177 -43.76846 -7.63706 34.07408 6.71111 -16.3303 83.13931 -89.66177 31.80592 1.95096 9.99164 0.07967 14.27693 -27.45565 10.09861 -3.64897 -3.15132 -0.90937 -2.23828 7.19613 -13.00384 7.09138 6.25514 11.74188
-1.40346 0.95904 -0.25376 165.55318 0 2.08167 -19.06637 -0.73323 -5.35173 -24.12895 5.32581 3.0001 25.21681 -25.08534 36.1816 106.35759 120.37691 -43.98664 -7.6368 34.14594 6.77054 -16.27401 83.1366 -89.69137 31.8396 1.95981 10.01528 0.08865 14.28621 -27.45661 10.09281 -3.64263 -3.14131 -0.89083 -2.22938 7.2446 -13.01287 7.10842 6.2583 11.71778
-1.40307 0.95901 -0.25367 165.49597 0 2.08026 -19.0455 -0.74685 -5.33548 -24.17431 5.27155 2.95637 25.17041 -25.00657 36.15449 106.2377 120.57501 -43.99871 -7.66538 34.19615 6.85689 -16.24245 83.14711 -89.71005 31.86335 1.96197 10.05886 0.09971 14.32207 -27.4805 10.08132 -3.62971 -3.1241 -0.87614 -2.22712 7.30853 -13.01496 7.11631 6.26145 11.70739
